<?xml version="1.0" encoding="UTF-8"?> <svg xmlns="http://www.w3.org/2000/svg" id="b" width="1004.58" height="390.16" viewBox="0 0 1004.58 390.16"><defs><style>.d{fill:#f0c09b;}.e{fill:#dea19f;}.f{fill:#d92917;}.g{fill:#211c19;}.h{fill:#2d51c0;}.i{fill:#7484e8;}.j{fill:#622c8e;}</style></defs><g id="c"><path class="i" d="m378.71,71.03C354.42,29.73,299.54-12.42,252.03,3.41c-45.52,15.17-62.28,75.99-59.31,77.94,2.77,1.82,21.45-48.3,63.88-59.04,38.84-9.83,86.34,16.14,110.12,51.47,35.71,53.07,16.35,122.16-9.77,162.24-32.76,50.26-83.7,66.83-99.91,71.4,8.1,2.13,19.53,4,32.68,2.14,64.48-9.11,93.6-97.06,96.66-106.72,6.07-19.15,24.47-77.23-7.65-131.82Z"></path><path class="i" d="m987.78,275.56c46.4-88.06-17.44-209.26-22.92-208.29-5.81,1.03,55.6,139.58-5.42,223.93-55.48,76.68-185.7,71.8-409.78,60.65-135.1-6.73-244.36-22.1-314.46-33.77-1.19,10.23-2.39,20.46-3.58,30.68,67.65,14.71,167.25,31.69,288.61,34.93,175.13,4.68,404.88,10.82,467.56-108.13Z"></path><path class="i" d="m364.54,100.4c-2.15,15.45-10.15,28.12-21.07,32.91-10.54,4.62-19.88.19-22.6-1.24,2.15-15.45,10.15-28.12,21.07-32.91,10.54-4.62,19.88-.19,22.6,1.24Z"></path><path class="h" d="m379.77,156.68c-4.46,13.04-13.78,22.62-24.49,24.84-10.34,2.14-18.13-3.37-20.37-5.1,4.46-13.04,13.78-22.62,24.49-24.84,10.34-2.14,18.13,3.37,20.37,5.1Z"></path><path class="e" d="m357.7,228.49c-10.45,6.07-22.1,4.83-30.42-3.5-8.03-8.04-9.98-19.71-10.46-23.18,10.45-6.07,22.1-4.83,30.42,3.5,8.03,8.04,9.98,19.71,10.46,23.18Z"></path><path class="d" d="m324.9,252.86c-9.15,5.81-20.41,5.78-29.43-.29-8.71-5.86-12.09-15.18-13-17.95,9.15-5.81,20.41-5.78,29.43.29,8.71,5.86,12.09,15.18,13,17.95Z"></path><path class="i" d="m279.38,269.36c-6,1.87-12.66-.02-17.4-5.08-4.57-4.88-5.65-10.9-5.91-12.68,6-1.87,12.66.02,17.4,5.08,4.57,4.88,5.65,10.9,5.91,12.68Z"></path><path class="j" d="m305.46,203.08c-6.79,10.84-17.52,16.92-28.12,15.66-10.23-1.22-16.54-8.82-18.32-11.14,6.79-10.84,17.52-16.92,28.12-15.66,10.23,1.22,16.54,8.82,18.32,11.14Z"></path><path class="f" d="m331.33,164.73c-5.84,9.61-15.22,15.18-24.58,14.36-9.03-.79-14.69-7.24-16.29-9.21,5.84-9.61,15.22-15.18,24.58-14.36,9.03.79,14.69,7.24,16.29,9.21Z"></path><path class="j" d="m310.51,113.32c-.84,12.14-6.35,23.27-14.55,28.99-7.92,5.52-15.39,3.94-17.57,3.37.84-12.14,6.35-23.27,14.55-28.99,7.92-5.52,15.39-3.94,17.57-3.37Z"></path><path class="d" d="m326.12,55.45c-.93,14.43-7.27,29.08-16.75,38.22-9.15,8.82-17.81,9.21-20.34,9.2.93-14.43,7.27-29.08,16.75-38.22,9.15-8.82,17.81-9.21,20.34-9.2Z"></path><path class="h" d="m271.18,91.82c1.34,11.72-1.83,24.11-8.44,32.34-6.38,7.94-13.6,9.05-15.72,9.27-1.34-11.72,1.83-24.11,8.44-32.34,6.38-7.94,13.6-9.05,15.72-9.27Z"></path><path class="j" d="m289.35,32.3c3.13,11.55,1.91,25.16-3.35,35.55-5.07,10.03-12.01,13.34-14.07,14.2-3.13-11.55-1.91-25.16,3.35-35.55,5.07-10.03,12.01-13.34,14.07-14.2Z"></path><path class="d" d="m247.39,40.37c5.78,9.77,7.94,23.21,5.49,35.19-2.36,11.56-8.14,17.45-9.88,19.09-5.78-9.77-7.94-23.21-5.49-35.19,2.36-11.56,8.14-17.45,9.88-19.09Z"></path><path class="i" d="m215.61,68.15c7.22,8.41,11.17,21.21,10.17,33.54-.97,11.9-6.19,18.94-7.78,20.93-7.22-8.41-11.17-21.21-10.17-33.54.97-11.9,6.19-18.94,7.78-20.93Z"></path><path class="f" d="m191.29,108.72c5.22,4.17,8.76,11.51,9.15,19.26.38,7.48-2.31,12.56-3.14,14.01-5.22-4.17-8.76-11.51-9.15-19.26-.38-7.48,2.31-12.56,3.14-14.01Z"></path><path class="j" d="m366.6,96.08c-2.15,15.45-10.15,28.12-21.07,32.91-10.54,4.62-19.88.19-22.6-1.24,2.15-15.45,10.15-28.12,21.07-32.91,10.54-4.62,19.88-.19,22.6,1.24Z"></path><path class="i" d="m381.83,152.36c-4.46,13.04-13.78,22.62-24.49,24.84-10.34,2.14-18.13-3.37-20.37-5.1,4.46-13.04,13.78-22.62,24.49-24.84,10.34-2.14,18.13,3.37,20.37,5.1Z"></path><path class="f" d="m359.76,224.17c-10.45,6.07-22.1,4.83-30.42-3.5-8.03-8.04-9.98-19.71-10.46-23.18,10.45-6.07,22.1-4.83,30.42,3.5,8.03,8.04,9.98,19.71,10.46,23.18Z"></path><path class="e" d="m326.96,248.54c-9.15,5.81-20.41,5.78-29.43-.29-8.71-5.86-12.09-15.18-13-17.95,9.15-5.81,20.41-5.78,29.43.29,8.71,5.86,12.09,15.18,13,17.95Z"></path><path class="f" d="m281.44,265.04c-6,1.87-12.66-.02-17.4-5.08-4.57-4.88-5.65-10.9-5.91-12.68,6-1.87,12.66.02,17.4,5.08,4.57,4.88,5.65,10.9,5.91,12.68Z"></path><path class="h" d="m307.52,198.76c-6.79,10.84-17.52,16.92-28.12,15.66-10.23-1.22-16.54-8.82-18.32-11.14,6.79-10.84,17.52-16.92,28.12-15.66,10.23,1.22,16.54,8.82,18.32,11.14Z"></path><path class="j" d="m333.39,160.41c-5.84,9.61-15.22,15.18-24.58,14.36-9.03-.79-14.69-7.24-16.29-9.21,5.84-9.61,15.22-15.18,24.58-14.36,9.03.79,14.69,7.24,16.29,9.21Z"></path><path class="f" d="m312.57,109c-.84,12.14-6.35,23.27-14.55,28.99-7.92,5.52-15.39,3.94-17.57,3.37.84-12.14,6.35-23.27,14.55-28.99,7.92-5.52,15.39-3.94,17.57-3.37Z"></path><path class="e" d="m328.19,51.13c-.93,14.43-7.27,29.08-16.75,38.22-9.15,8.82-17.81,9.21-20.34,9.2.93-14.43,7.27-29.08,16.75-38.22,9.15-8.82,17.81-9.21,20.34-9.2Z"></path><path class="j" d="m273.24,87.5c1.34,11.72-1.83,24.11-8.44,32.34-6.38,7.94-13.6,9.05-15.72,9.27-1.34-11.72,1.83-24.11,8.44-32.34,6.38-7.94,13.6-9.05,15.72-9.27Z"></path><path class="h" d="m291.41,27.98c3.13,11.55,1.91,25.16-3.35,35.55-5.07,10.03-12.01,13.34-14.07,14.2-3.13-11.55-1.91-25.16,3.35-35.55,5.07-10.03,12.01-13.34,14.07-14.2Z"></path><path class="f" d="m249.45,36.05c5.78,9.77,7.94,23.21,5.49,35.19-2.36,11.56-8.14,17.45-9.88,19.09-5.78-9.77-7.94-23.21-5.49-35.19,2.36-11.56,8.14-17.45,9.88-19.09Z"></path><path class="e" d="m217.67,63.83c7.22,8.41,11.17,21.21,10.17,33.54-.97,11.9-6.19,18.94-7.78,20.93-7.22-8.41-11.17-21.21-10.17-33.54.97-11.9,6.19-18.94,7.78-20.93Z"></path><path class="i" d="m193.35,104.4c5.22,4.17,8.76,11.51,9.15,19.26.38,7.48-2.31,12.56-3.14,14.01-5.22-4.17-8.76-11.51-9.15-19.26-.38-7.48,2.31-12.56,3.14-14.01Z"></path><path class="i" d="m44.27,73.89c12.01-3.57,24.37.78,32.25,11.63,7.6,10.48,8.2,23.12,8.26,26.85-12.01,3.57-24.37-.78-32.25-11.63-7.6-10.48-8.2-23.12-8.26-26.85Z"></path><path class="h" d="m78.65,33.98c11.2.07,21.88,7.18,27.82,18.8,5.73,11.22,4.92,22.48,4.58,25.77-11.2-.07-21.88-7.18-27.82-18.8-5.73-11.22-4.92-22.48-4.58-25.77Z"></path><path class="e" d="m139.33,31.47c8.61,9.8,12.44,23.88,9.81,36.87-2.54,12.54-10.16,19.4-12.46,21.32-8.61-9.8-12.44-23.88-9.81-36.87,2.54-12.54,10.16-19.4,12.46-21.32Z"></path><path class="d" d="m170.18,60.16c7.89,8.39,12.44,21.54,11.72,34.45-.7,12.46-6.04,20.08-7.67,22.23-7.89-8.39-12.44-21.54-11.72-34.45.7-12.46,6.04-20.08,7.67-22.23Z"></path><path class="j" d="m142.19,102.42c10.56,3.66,19.29,13.78,22.67,26.64,3.27,12.42.35,22.77-.6,25.76-10.56-3.66-19.29-13.78-22.67-26.64-3.27-12.42-.35-22.77.6-25.76Z"></path><path class="f" d="m104.08,87.33c9.29,3.04,17.1,11.78,20.3,23.02,3.09,10.85.74,19.99-.03,22.63-9.29-3.04-17.1-11.78-20.3-23.02-3.09-10.85-.74-19.99.03-22.63Z"></path><path class="j" d="m75.48,131.84c9.08-3.8,19.34-1.74,26.78,5.58,7.18,7.06,9.07,16.41,9.55,19.17-9.08,3.8-19.34,1.74-26.78-5.58-7.18-7.06-9.07-16.41-9.55-19.17Z"></path><path class="d" d="m27.45,136.39c10.77-4.6,23.9-2.96,34.32,4.5,10.06,7.2,13.86,17.16,14.87,20.11-10.77,4.6-23.9,2.96-34.32-4.5-10.06-7.2-13.86-17.16-14.87-20.11Z"></path><path class="h" d="m75.93,186.18c7.9-6.18,18.11-7.35,26.72-2.88,8.31,4.32,12.03,12.31,13.05,14.7-7.9,6.18-18.11,7.35-26.72,2.88-8.31-4.32-12.03-12.31-13.05-14.7Z"></path><path class="j" d="m25.68,188.41c7.06-8.19,17.35-12.12,26.97-10.08,9.28,1.97,14.48,8.77,15.93,10.83-7.06,8.19-17.35,12.12-26.97,10.08-9.28-1.97-14.48-8.77-15.93-10.83Z"></path><path class="d" d="m48.5,234.19c4.7-10.59,13.51-18.4,23.12-20.25,9.28-1.79,15.87,2.64,17.76,4.02-4.7,10.59-13.51,18.4-23.12,20.25-9.28,1.79-15.87-2.64-17.76-4.02Z"></path><path class="i" d="m81.39,260.34c3.13-11.74,10.75-21.38,20.04-25.06,8.97-3.55,16.16-.23,18.23.85-3.13,11.74-10.75,21.38-20.04,25.06-8.97,3.55-16.16.23-18.23-.85Z"></path><path class="f" d="m120.48,272.75c.89-7.73,4.74-14.75,10.16-18.26,5.23-3.39,9.98-2.25,11.36-1.85-.89,7.73-4.74,14.75-10.16,18.26-5.23,3.39-9.98,2.25-11.36,1.85Z"></path><path class="j" d="m40.32,73.18c12.01-3.57,24.37.78,32.25,11.63,7.6,10.48,8.2,23.12,8.26,26.85-12.01,3.57-24.37-.78-32.25-11.63-7.6-10.48-8.2-23.12-8.26-26.85Z"></path><path class="i" d="m74.7,33.27c11.2.07,21.88,7.18,27.82,18.8,5.73,11.22,4.92,22.48,4.58,25.77-11.2-.07-21.88-7.18-27.82-18.8-5.73-11.22-4.92-22.48-4.58-25.77Z"></path><path class="d" d="m135.38,30.76c8.61,9.8,12.44,23.88,9.81,36.87-2.54,12.54-10.16,19.4-12.46,21.32-8.61-9.8-12.44-23.88-9.81-36.87,2.54-12.54,10.16-19.4,12.46-21.32Z"></path><path class="e" d="m166.23,59.45c7.89,8.39,12.44,21.54,11.72,34.45-.7,12.46-6.04,20.08-7.67,22.23-7.89-8.39-12.44-21.54-11.72-34.45.7-12.46,6.04-20.08,7.67-22.23Z"></path><path class="h" d="m138.24,101.72c10.56,3.66,19.29,13.78,22.67,26.64,3.27,12.42.35,22.77-.6,25.76-10.56-3.66-19.29-13.78-22.67-26.64-3.27-12.42-.35-22.77.6-25.76Z"></path><path class="j" d="m100.13,86.62c9.29,3.04,17.1,11.78,20.3,23.02,3.09,10.85.74,19.99-.03,22.63-9.29-3.04-17.1-11.78-20.3-23.02-3.09-10.85-.74-19.99.03-22.63Z"></path><path class="f" d="m71.53,131.13c9.08-3.8,19.34-1.74,26.78,5.58,7.18,7.06,9.07,16.41,9.55,19.17-9.08,3.8-19.34,1.74-26.78-5.58-7.18-7.06-9.07-16.41-9.55-19.17Z"></path><path class="e" d="m23.5,135.69c10.77-4.6,23.9-2.96,34.32,4.5,10.06,7.2,13.86,17.16,14.87,20.11-10.77,4.6-23.9,2.96-34.32-4.5-10.06-7.2-13.86-17.16-14.87-20.11Z"></path><path class="j" d="m71.98,185.48c7.9-6.18,18.11-7.35,26.72-2.88,8.31,4.32,12.03,12.31,13.05,14.7-7.9,6.18-18.11,7.35-26.72,2.88-8.31-4.32-12.03-12.31-13.05-14.7Z"></path><path class="h" d="m21.73,187.7c7.06-8.19,17.35-12.12,26.97-10.08,9.28,1.97,14.48,8.77,15.93,10.83-7.06,8.19-17.35,12.12-26.97,10.08-9.28-1.97-14.48-8.77-15.93-10.83Z"></path><path class="f" d="m44.55,233.48c4.7-10.59,13.51-18.4,23.12-20.25,9.28-1.79,15.87,2.64,17.76,4.02-4.7,10.59-13.51,18.4-23.12,20.25-9.28,1.79-15.87-2.64-17.76-4.02Z"></path><path class="e" d="m77.44,259.63c3.13-11.74,10.75-21.38,20.04-25.06,8.97-3.55,16.16-.23,18.23.85-3.13,11.74-10.75,21.38-20.04,25.06-8.97,3.55-16.16.23-18.23-.85Z"></path><path class="i" d="m116.53,272.04c.89-7.73,4.74-14.75,10.16-18.26,5.23-3.39,9.98-2.25,11.36-1.85-.89,7.73-4.74,14.75-10.16,18.26-5.23,3.39-9.98,2.25-11.36,1.85Z"></path><path class="g" d="m128.55,377.04c-.56-3.72,8.88-5.91,21.21-17.25,13.08-12.03,20.17-25.84,24.18-36.05,0,0,15.51-38.17,5.9-74.61-.93-3.52-2.38-6.99-2.38-6.99-6.03-15.11-14.41-21.28-12.9-23.5,2.7-3.95,19.46,8.22,22.81,4.56,5.06-5.53-25.58-40.09-22.97-42.52,2.37-2.2,29.03,24.88,32.25,22.14,3.57-3.04-24.44-40.27-21.66-42.5,2.61-2.09,29.85,28.61,32.74,26.23.71-.59-.45-2.84-6.35-17.59-3.84-9.59-4.74-12.11-4.07-12.54,1.52-.97,9.85,9.5,10.59,10.43,7.15,9.03,10.47,16.22,11.4,15.8.18-.08.45-.52-2.12-11.4-1.31-5.54-1.93-7.77-1.42-8.01.9-.42,4.49,5.57,4.95,6.33,12.15,20.24,11.29,46.15,11.29,46.15-.58,99.59,14.41,138.85-14.29,161.33-31.07,24.33-87.82,9.06-89.17,0Z"></path><path class="i" d="m12.24,75.95C33.22,32.39,86.96-11,133.73,3.41c45.95,14.16,61.13,76.73,59.16,77.96-1.83,1.14-20.9-49.03-63.72-59.07-26.58-6.23-49.92,5.91-55.68,8.9C15.51,61.38,14,143.59,13.98,148.06c-.24,59.21,37.25,99.05,47.35,109.9,64.45,69.22,160.32,61.37,174.35,59.99.67,4.19,1.15,9.59.75,15.85-.39,6.11-1.51,11.29-2.67,15.31-.49-.08-1.23-.21-2.14-.36-41.29-7.08-99.92-17.13-137.64-38.04C31.4,276.03-1.86,195.92.08,131.99c.4-13,1.22-33.31,12.16-56.04Z"></path><path d="m464.8,150.53c-.65,1.75-1.47,3.14-2.47,4.16-.99,1.03-2.38,1.54-4.16,1.54-1.58,0-3.14-.51-4.68-1.54-1.54-1.03-2.62-2.37-3.24-4.01l-1.44-3.7c-.28-.75-1.05-2.74-2.31-5.96-1.27-3.22-2.14-5.76-2.62-7.61l-1.34.21c.41,3.5,1.4,8.74,2.98,15.73.21.89.43,1.82.67,2.78.24.96.46,1.99.67,3.08l1.13,5.04c.96,1.3,1.44,2.67,1.44,4.11,0,2.13-1.03,3.87-3.08,5.24-2.06,1.37-4.18,2.06-6.38,2.06-1.71,0-3.22-.75-4.52-2.26-1.3-1.51-2.3-3.31-2.98-5.4-.69-2.09-1.03-3.96-1.03-5.6-.82-2.47-1.56-8.16-2.21-17.07-.65-8.91-.98-16.14-.98-21.7v-20.26c0-1.71.62-3.19,1.85-4.42,1.23-1.23,2.74-1.85,4.52-1.85s3.19.62,4.42,1.85c1.23,1.23,1.85,2.71,1.85,4.42v.82c.34-.07.82-.1,1.44-.1,1.92,0,3.65.96,5.19,2.88,1.54,1.92,3.15,5.07,4.83,9.46,1.68,4.39,3.75,10.8,6.22,19.23,1.3-4.04,2.23-7.09,2.78-9.15.55-2.06.96-3.94,1.23-5.66l2.47-12.24c.21-1.23.62-2.95,1.23-5.14.27-1.37.75-2.42,1.44-3.14.68-.72,1.51-1.08,2.47-1.08,1.44,0,2.89.38,4.37,1.13,1.47.75,2.83,1.68,4.06,2.78.82,2.06,1.37,5.81,1.64,11.26.27,5.45.41,13.11.41,22.98v21.8l.31,3.5c.62,5.07.93,8.43.93,10.08.07,1.78-.51,3.31-1.75,4.58-1.23,1.27-2.74,1.9-4.52,1.9s-3.19-.6-4.42-1.8c-1.23-1.2-1.89-2.62-1.95-4.27l-.1-2.98-.1-25.4-1.23.41c-1.37,4.46-2.38,7.56-3.03,9.31Z"></path><path d="m506.19,96.29c1.37-1.58,2.71-2.76,4.01-3.55,1.3-.79,2.91-1.18,4.83-1.18,4.32.14,7.59,1.3,9.82,3.5,2.23,2.19,3.7,5.14,4.42,8.84s1.08,8.43,1.08,14.19c0,3.56-.04,6.24-.1,8.02l-.1,9.05c0,4.18-.34,9.53-1.03,16.04-.76,6.58-2.88,12.03-6.38,16.35-3.5,4.32-7.95,6.48-13.37,6.48-3.02,0-5.07-.55-6.17-1.65-1.1-.82-2.4-2.04-3.91-3.65-1.51-1.61-2.78-3.2-3.8-4.78-1.1-1.51-1.85-2.88-2.26-4.11-.41-1.23-.69-3.14-.82-5.71-.14-2.57-.21-7.01-.21-13.32v-10.59c0-8.36.12-14.58.36-18.66.24-4.08.72-7.25,1.44-9.51.72-2.26,1.87-4.18,3.44-5.76,1.17-1.16,2.6-1.75,4.32-1.75s3.12.58,4.42,1.75Zm7.51,62.41c1.23-2.19,2.21-5.55,2.93-10.08.72-4.52,1.11-8.4,1.18-11.62,0-7.27-.12-13.62-.36-19.07-.24-5.45-.81-9.68-1.7-12.7-3.43,1.37-5.69,4.7-6.79,9.97-1.1,5.28-1.65,12.3-1.65,21.08v3.8c0,4.18.07,7.23.21,9.15.14,1.92.48,3.46,1.03,4.63.82,1.71,1.87,2.93,3.14,3.65,1.27.72,1.94,1.11,2,1.18Z"></path><path d="m574.56,134.54l1.34-.21c.34-17.21.86-28.07,1.54-32.59-.07-1.37.21-3.05.82-5.04.48-1.37,1.29-2.47,2.42-3.29,1.13-.82,2.38-1.23,3.75-1.23,1.78,0,3.25.65,4.42,1.95,1.16,1.3,1.75,2.85,1.75,4.63-1.37,10.56-2.06,23.38-2.06,38.46,0,4.18-.07,8.57-.21,13.16-.14,4.59-.27,7.92-.41,9.97-.27,3.29-1.23,6-2.88,8.12-1.65,2.12-3.8,3.19-6.48,3.19-.89,0-1.82-.41-2.78-1.23-.69-.62-1.27-1.52-1.75-2.72-.48-1.2-.75-2.31-.82-3.34v-.1c-1.37-2.67-2.64-5.96-3.8-9.87-.14-.55-.4-1.25-.77-2.11-.38-.86-.67-1.49-.87-1.9-.82-1.78-1.37-3.15-1.65-4.11l-5.14-12.96-1.34.72c0,1.44.27,5.86.82,13.26.07,1.44.24,3.98.51,7.61.27,3.63.41,6.24.41,7.81,0,2.19-.58,3.94-1.75,5.24-1.17,1.3-2.67,1.95-4.52,1.95-1.51,0-2.81-.45-3.91-1.34-.82.41-1.68.62-2.57.62-1.17,0-2.28-.46-3.34-1.39-1.06-.93-1.59-2.18-1.59-3.75v-1.85c-1.37-2.4-2.23-4.46-2.57-6.17-.34-1.71-.51-4.39-.51-8.02,0-9.67.22-17.21.67-22.62.45-5.41,1.04-10.69,1.8-15.83.55-3.29.82-5.89.82-7.81-.07-.14-.14-.53-.21-1.18-.07-.65-.1-1.29-.1-1.9,0-1.78.62-3.34,1.85-4.68,1.23-1.34,2.71-2,4.42-2,2.12,0,4.01.77,5.66,2.31,1.64,1.54,2.47,3.51,2.47,5.91.27-.07.68-.1,1.23-.1,1.51,0,2.78.6,3.8,1.8,1.03,1.2,1.97,2.95,2.83,5.24.86,2.3,2,5.88,3.44,10.75l1.23,4.01,1.23,4.32c1.23,4.39,2.16,7.16,2.78,8.33Z"></path><path d="m607.36,109.04c-1.71,0-3.22-.6-4.52-1.8-1.3-1.2-1.95-2.73-1.95-4.58,0-3.29,2.02-5.53,6.07-6.73,4.04-1.2,9.49-1.8,16.35-1.8h5.76c3.7,0,6.6.14,8.69.41,2.09.27,3.72.91,4.88,1.9,1.17.99,1.75,2.52,1.75,4.58,0,1.03-.46,2-1.39,2.93-.93.93-1.97,1.71-3.14,2.37-1.17.65-1.75.94-1.75.87-.28,0-.91-.03-1.9-.1-1-.07-1.83-.17-2.52-.31-.69,4.8-1.03,10.28-1.03,16.45,0,8.23.08,15.78.26,22.67.17,6.89.29,11.02.36,12.39l.21,9.15c0,1.71-.62,3.2-1.85,4.47-1.23,1.27-2.71,1.9-4.42,1.9-1.23,0-2.4-.38-3.5-1.13-1.1-.75-1.89-1.68-2.37-2.78-1.58-.21-2.91-.91-4.01-2.11-1.1-1.2-1.65-2.62-1.65-4.27-.14-7.54-.36-14.24-.67-20.1s-.81-12.35-1.49-19.48c-.41-3.7-.62-7.75-.62-12.13,0-1.85.03-3.22.1-4.11,0-.27-.19-.36-.57-.26-.38.1-1.15.4-2.31.87-.89.48-1.82.72-2.78.72Z"></path><path d="m670.49,95.58c.14,0,.53-.21,1.18-.62.65-.41,1.63-.62,2.93-.62.55,0,1.61.17,3.19.51l6.79,1.54c2.95.62,5.35,1.2,7.2,1.75,1.3.48,2.35,1.27,3.14,2.36.79,1.1,1.18,2.33,1.18,3.7,0,1.85-.63,3.36-1.9,4.52-1.27,1.17-2.73,1.75-4.37,1.75-1.17-.27-3.07-.74-5.71-1.39-2.64-.65-4.58-1.08-5.81-1.29-.34,3.29-.79,9.43-1.34,18.41h4.11c1.71,0,3.19.63,4.42,1.9,1.23,1.27,1.85,2.76,1.85,4.47s-.62,3.19-1.85,4.42c-1.23,1.23-2.71,1.85-4.42,1.85h-4.83c0,1.17-.04,2.02-.1,2.57l-.1,6.89.1,8.53c.89.21,1.76.34,2.62.41.86.07,1.9.1,3.14.1.82-.41,1.71-.62,2.67-.62,1.71,0,3.22.58,4.52,1.75,1.3,1.17,1.95,2.67,1.95,4.52,0,2.26-.92,3.99-2.78,5.19-1.85,1.2-4.11,1.8-6.79,1.8-4.11,0-7.3-.41-9.56-1.23-2.26-.82-4.35-2.43-6.27-4.83-1.23,1.23-2.71,1.85-4.42,1.85-2.06,0-3.67-.79-4.83-2.36-1.17-1.58-1.75-3.74-1.75-6.48v-19.64c0-8.09.27-14.15.82-18.2.55-4.04,1.88-9.9,4.01-17.58.21-.41.34-1.03.41-1.85.14-1.58.82-2.93,2.06-4.06,1.23-1.13,2.64-1.7,4.22-1.7s3.02.55,4.32,1.65Z"></path><path d="m741.13,103.6c0,1.71-.62,3.19-1.85,4.42-1.23,1.23-2.78,1.85-4.63,1.85-.75,0-1.47-.15-2.16-.46-.69-.31-1.58-.84-2.67-1.59-.34-.27-.89-.55-1.65-.82,0,2.47.24,4.47.72,6.02.48,1.54,1.44,4.03,2.88,7.45,2.95,6.99,5.28,13.4,6.99,19.23,1.71,5.83,2.57,11.17,2.57,16.04s-.43,9.08-1.29,12.03c-.86,2.95-2.49,5.16-4.88,6.63-2.4,1.47-5.93,2.21-10.59,2.21-3.15,0-5.9-.82-8.23-2.47-2.33-1.65-3.5-3.7-3.5-6.17,0-1.65.58-3.12,1.75-4.42,1.16-1.3,2.67-1.95,4.52-1.95,1.71,0,3.15.55,4.32,1.65.27-1.65.41-3.25.41-4.83,0-1.99-.38-3.87-1.13-5.65-1.65-4.59-4.05-9.9-7.2-15.94l-1.54-3.08c-.75-1.3-1.61-3.36-2.57-6.17-.28-.82-.76-2.06-1.44-3.7-1.17-2.67-2.06-5.02-2.67-7.04-.62-2.02-.92-4.03-.92-6.02,0-1.71.41-3.58,1.23-5.6.82-2.02,1.94-3.72,3.34-5.09,1.4-1.37,2.93-2.06,4.58-2.06.75,0,1.54.17,2.37.51.96-1.37,2.23-2.48,3.8-3.34,1.58-.86,3.15-1.29,4.73-1.29.96,0,2.28.19,3.96.57,1.68.38,2.96.77,3.86,1.18,1.92.89,3.55,2,4.88,3.34,1.34,1.34,2.01,2.86,2.01,4.58Z"></path><path d="m786.37,103.6c0,1.71-.62,3.19-1.85,4.42-1.23,1.23-2.78,1.85-4.63,1.85-.75,0-1.47-.15-2.16-.46-.69-.31-1.58-.84-2.67-1.59-.34-.27-.89-.55-1.65-.82,0,2.47.24,4.47.72,6.02.48,1.54,1.44,4.03,2.88,7.45,2.95,6.99,5.28,13.4,6.99,19.23,1.71,5.83,2.57,11.17,2.57,16.04s-.43,9.08-1.29,12.03c-.86,2.95-2.49,5.16-4.88,6.63-2.4,1.47-5.93,2.21-10.59,2.21-3.15,0-5.9-.82-8.23-2.47-2.33-1.65-3.5-3.7-3.5-6.17,0-1.65.58-3.12,1.75-4.42,1.16-1.3,2.67-1.95,4.52-1.95,1.71,0,3.15.55,4.32,1.65.27-1.65.41-3.25.41-4.83,0-1.99-.38-3.87-1.13-5.65-1.65-4.59-4.05-9.9-7.2-15.94l-1.54-3.08c-.75-1.3-1.61-3.36-2.57-6.17-.28-.82-.76-2.06-1.44-3.7-1.17-2.67-2.06-5.02-2.67-7.04-.62-2.02-.92-4.03-.92-6.02,0-1.71.41-3.58,1.23-5.6.82-2.02,1.94-3.72,3.34-5.09,1.4-1.37,2.93-2.06,4.58-2.06.75,0,1.54.17,2.37.51.96-1.37,2.23-2.48,3.8-3.34,1.58-.86,3.15-1.29,4.73-1.29.96,0,2.28.19,3.96.57,1.68.38,2.96.77,3.86,1.18,1.92.89,3.55,2,4.88,3.34,1.34,1.34,2.01,2.86,2.01,4.58Z"></path><path d="m810.84,96.29c1.37-1.58,2.71-2.76,4.01-3.55,1.3-.79,2.91-1.18,4.83-1.18,4.32.14,7.59,1.3,9.82,3.5,2.23,2.19,3.7,5.14,4.42,8.84s1.08,8.43,1.08,14.19c0,3.56-.04,6.24-.1,8.02l-.1,9.05c0,4.18-.34,9.53-1.03,16.04-.76,6.58-2.88,12.03-6.38,16.35-3.5,4.32-7.95,6.48-13.37,6.48-3.02,0-5.07-.55-6.17-1.65-1.1-.82-2.4-2.04-3.91-3.65-1.51-1.61-2.78-3.2-3.8-4.78-1.1-1.51-1.85-2.88-2.26-4.11-.41-1.23-.69-3.14-.82-5.71-.14-2.57-.21-7.01-.21-13.32v-10.59c0-8.36.12-14.58.36-18.66.24-4.08.72-7.25,1.44-9.51.72-2.26,1.87-4.18,3.44-5.76,1.17-1.16,2.6-1.75,4.32-1.75s3.12.58,4.42,1.75Zm7.51,62.41c1.23-2.19,2.21-5.55,2.93-10.08.72-4.52,1.11-8.4,1.18-11.62,0-7.27-.12-13.62-.36-19.07-.24-5.45-.81-9.68-1.7-12.7-3.43,1.37-5.69,4.7-6.79,9.97-1.1,5.28-1.65,12.3-1.65,21.08v3.8c0,4.18.07,7.23.21,9.15.14,1.92.48,3.46,1.03,4.63.82,1.71,1.87,2.93,3.14,3.65,1.27.72,1.94,1.11,2,1.18Z"></path><path d="m890.99,173.87c-1.2,1.2-2.69,1.8-4.47,1.8-1.58,0-2.71-.29-3.39-.87-.69-.58-1.71-1.87-3.08-3.86-.34-.48-.89-1.27-1.65-2.36-.75-1.1-1.51-2.16-2.26-3.19-1.23-1.65-3.07-4.61-5.5-8.89-2.43-4.28-4.13-7.56-5.09-9.82l-1.23.62c0,1.1.14,3.56.41,7.4l.21,3.7c.14,3.43.21,5.52.21,6.27,0,2.13-.22,3.5-.67,4.11-.45.62-1.39.93-2.83.93-.28,0-.76-.07-1.44-.21-.69.21-1.37.31-2.06.31-2.33,0-4.47-1.49-6.43-4.47-1.95-2.98-3.51-6.61-4.68-10.9-1.17-4.28-1.75-8.17-1.75-11.67,0-9.87.17-17.62.51-23.24,0-2.33.39-6.7,1.18-13.11.79-6.41,1.46-10.26,2-11.57.82-1.78,1.73-3.08,2.72-3.91.99-.82,2.24-1.23,3.75-1.23.75,0,1.58.17,2.47.51.89.34,1.58.86,2.06,1.54,3.36,0,5.93.14,7.71.41,1.78.27,3.24.69,4.37,1.23,1.13.55,2.48,1.47,4.06,2.78,2.33,1.92,4.11,4.27,5.35,7.04,1.23,2.78,1.85,5.78,1.85,9,0,3.02-.19,5.4-.57,7.15-.38,1.75-1.08,3.6-2.11,5.55s-3.02,5.36-5.96,10.23c2.6,6.17,4.85,11.07,6.74,14.7,1.88,3.63,4.03,6.96,6.43,9.97,1.71,2.4,2.96,4.32,3.75,5.76.79,1.44,1.18,2.71,1.18,3.8,0,1.78-.6,3.27-1.8,4.47Zm-20.41-57.12c.07-.75.1-1.37.1-1.85v-2.67c0-.48-.07-1.2-.21-2.16l-.21-1.03c-.82-1.51-1.54-2.54-2.16-3.08l-4.73-2.57c-.55,5.69-.82,10.69-.82,15.01,0,1.3.07,3.74.21,7.3.96-.41,2.17-1.27,3.65-2.57,1.47-1.3,2.66-2.71,3.55-4.22.34-.68.55-1.4.62-2.16Z"></path><path d="m907.8,107.61c-1.37-.41-2.5-1.18-3.39-2.31-.89-1.13-1.34-2.42-1.34-3.86,0-1.78.7-3.44,2.11-4.99,1.4-1.54,3.17-2.45,5.29-2.72,1.1-.89,2.33-1.34,3.7-1.34.27,0,.67.04,1.18.1.51.07,1.18.1,2,.1,1.1,0,1.99-.07,2.67-.21,1.17-.96,2.47-1.44,3.91-1.44,1.71,0,3.2.63,4.47,1.9,1.27,1.27,1.9,2.76,1.9,4.47-.14,4.73-.38,11.91-.72,21.54-.34,9.63-.65,17.09-.92,22.36-.21,2.81-.31,8.47-.31,16.97,0,1.37-.41,2.64-1.23,3.8.07.21.19.55.36,1.03.17.48.26,1.06.26,1.75,0,1.37-.41,2.61-1.23,3.7-.82,1.1-1.95,1.92-3.39,2.47-1.17.48-3.02.98-5.55,1.49-2.54.51-4.11.77-4.73.77-3.22,0-5.59-.46-7.09-1.39-1.51-.93-2.26-2.49-2.26-4.68,0-1.58.55-2.96,1.64-4.16,1.1-1.2,2.6-1.9,4.52-2.11-.41-1.03-.82-7.04-1.23-18.04-.41-11-.62-19.14-.62-24.42v-10.8Z"></path><path d="m506.13,230.99c-1.37-.41-2.5-1.18-3.39-2.31-.89-1.13-1.34-2.42-1.34-3.86,0-1.78.7-3.44,2.11-4.99,1.4-1.54,3.17-2.45,5.29-2.72,1.1-.89,2.33-1.34,3.7-1.34.27,0,.67.04,1.18.1.51.07,1.18.1,2,.1,1.1,0,1.99-.07,2.67-.21,1.17-.96,2.47-1.44,3.91-1.44,1.71,0,3.2.63,4.47,1.9,1.27,1.27,1.9,2.76,1.9,4.47-.14,4.73-.38,11.91-.72,21.54-.34,9.63-.65,17.09-.92,22.36-.21,2.81-.31,8.47-.31,16.97,0,1.37-.41,2.64-1.23,3.8.07.21.19.55.36,1.03.17.48.26,1.06.26,1.75,0,1.37-.41,2.61-1.23,3.7-.82,1.1-1.95,1.92-3.39,2.47-1.17.48-3.02.98-5.55,1.49-2.54.51-4.11.77-4.73.77-3.22,0-5.59-.46-7.09-1.39-1.51-.93-2.26-2.49-2.26-4.68,0-1.58.55-2.96,1.64-4.16,1.1-1.2,2.6-1.9,4.52-2.11-.41-1.03-.82-7.04-1.23-18.04-.41-11-.62-19.14-.62-24.42v-10.8Z"></path><path d="m584.64,297.26c-1.2,1.2-2.69,1.8-4.47,1.8-1.58,0-2.71-.29-3.39-.87-.69-.58-1.71-1.87-3.08-3.86-.34-.48-.89-1.27-1.65-2.36-.75-1.1-1.51-2.16-2.26-3.19-1.23-1.65-3.07-4.61-5.5-8.89-2.43-4.28-4.13-7.56-5.09-9.82l-1.23.62c0,1.1.14,3.56.41,7.4l.21,3.7c.14,3.43.21,5.52.21,6.27,0,2.13-.22,3.5-.67,4.11-.45.62-1.39.93-2.83.93-.28,0-.76-.07-1.44-.21-.69.21-1.37.31-2.06.31-2.33,0-4.47-1.49-6.43-4.47-1.95-2.98-3.51-6.61-4.68-10.9-1.17-4.28-1.75-8.17-1.75-11.67,0-9.87.17-17.62.51-23.24,0-2.33.39-6.7,1.18-13.11.79-6.41,1.46-10.26,2-11.57.82-1.78,1.73-3.08,2.72-3.91.99-.82,2.24-1.23,3.75-1.23.75,0,1.58.17,2.47.51.89.34,1.58.86,2.06,1.54,3.36,0,5.93.14,7.71.41,1.78.27,3.24.69,4.37,1.23,1.13.55,2.48,1.47,4.06,2.78,2.33,1.92,4.11,4.27,5.35,7.04,1.23,2.78,1.85,5.78,1.85,9,0,3.02-.19,5.4-.57,7.15-.38,1.75-1.08,3.6-2.11,5.55s-3.02,5.36-5.96,10.23c2.6,6.17,4.85,11.07,6.74,14.7,1.88,3.63,4.03,6.96,6.43,9.97,1.71,2.4,2.96,4.32,3.75,5.76.79,1.44,1.18,2.71,1.18,3.8,0,1.78-.6,3.27-1.8,4.47Zm-20.41-57.12c.07-.75.1-1.37.1-1.85v-2.67c0-.48-.07-1.2-.21-2.16l-.21-1.03c-.82-1.51-1.54-2.54-2.16-3.08l-4.73-2.57c-.55,5.69-.82,10.69-.82,15.01,0,1.3.07,3.74.21,7.3.96-.41,2.17-1.27,3.65-2.57,1.47-1.3,2.66-2.71,3.55-4.22.34-.68.55-1.4.62-2.16Z"></path><path d="m610.6,217.73c.07,0,.41-.32,1.03-.98.62-.65,2.19-.98,4.73-.98,4.59,0,8.62,1.39,12.08,4.16,3.46,2.78,6.1,6.46,7.92,11.05,1.82,4.59,2.72,9.56,2.72,14.91,0,22-6.72,37.26-20.15,45.76-.69.48-1.75.72-3.19.72-.69.34-1.58.51-2.67.51-2.88,0-5.59-2.11-8.12-6.32-2.54-4.22-4.54-9.39-6.02-15.53-1.47-6.13-2.21-11.81-2.21-17.02,0-6.1.26-12.17.77-18.2.51-6.03,1.22-11.24,2.11-15.63.34-1.44,1.11-2.6,2.31-3.5,1.2-.89,2.52-1.34,3.96-1.34.82,0,1.66.21,2.52.62.86.41,1.59.99,2.21,1.75Zm4.22,11.21c-.14,1.1-.21,1.92-.21,2.47-.82,8.71-1.23,14.77-1.23,18.2s.21,7.01.62,10.75c.41,3.74,1.13,8.55,2.16,14.45,3.43-3.56,6.1-7.69,8.02-12.39,1.92-4.69,2.88-9.34,2.88-13.93s-1.03-8.84-3.08-12.34c-2.06-3.5-5.11-5.89-9.15-7.2Z"></path><path d="m683.29,257.93l1.34-.21c.34-17.21.86-28.07,1.54-32.59-.07-1.37.21-3.05.82-5.04.48-1.37,1.29-2.47,2.42-3.29,1.13-.82,2.38-1.23,3.75-1.23,1.78,0,3.25.65,4.42,1.95,1.16,1.3,1.75,2.85,1.75,4.63-1.37,10.56-2.06,23.38-2.06,38.46,0,4.18-.07,8.57-.21,13.16-.14,4.59-.27,7.92-.41,9.97-.27,3.29-1.23,6-2.88,8.12-1.65,2.12-3.8,3.19-6.48,3.19-.89,0-1.82-.41-2.78-1.23-.69-.62-1.27-1.52-1.75-2.72-.48-1.2-.75-2.31-.82-3.34v-.1c-1.37-2.67-2.64-5.96-3.8-9.87-.14-.55-.4-1.25-.77-2.11-.38-.86-.67-1.49-.87-1.9-.82-1.78-1.37-3.15-1.65-4.11l-5.14-12.96-1.34.72c0,1.44.27,5.86.82,13.26.07,1.44.24,3.98.51,7.61.27,3.63.41,6.24.41,7.81,0,2.19-.58,3.94-1.75,5.24-1.17,1.3-2.67,1.95-4.52,1.95-1.51,0-2.81-.45-3.91-1.34-.82.41-1.68.62-2.57.62-1.17,0-2.28-.46-3.34-1.39-1.06-.93-1.59-2.18-1.59-3.75v-1.85c-1.37-2.4-2.23-4.46-2.57-6.17-.34-1.71-.51-4.39-.51-8.02,0-9.67.22-17.21.67-22.62.45-5.41,1.04-10.69,1.8-15.83.55-3.29.82-5.89.82-7.81-.07-.14-.14-.53-.21-1.18-.07-.65-.1-1.29-.1-1.9,0-1.78.62-3.34,1.85-4.68,1.23-1.34,2.71-2,4.42-2,2.12,0,4.01.77,5.66,2.31,1.64,1.54,2.47,3.51,2.47,5.91.27-.07.68-.1,1.23-.1,1.51,0,2.78.6,3.8,1.8,1.03,1.2,1.97,2.95,2.83,5.24.86,2.3,2,5.88,3.44,10.75l1.23,4.01,1.23,4.32c1.23,4.39,2.16,7.16,2.78,8.33Z"></path><path d="m714.34,230.99c-1.37-.41-2.5-1.18-3.39-2.31-.89-1.13-1.34-2.42-1.34-3.86,0-1.78.7-3.44,2.11-4.99,1.4-1.54,3.17-2.45,5.29-2.72,1.1-.89,2.33-1.34,3.7-1.34.27,0,.67.04,1.18.1.51.07,1.18.1,2,.1,1.1,0,1.99-.07,2.67-.21,1.17-.96,2.47-1.44,3.91-1.44,1.71,0,3.2.63,4.47,1.9,1.27,1.27,1.9,2.76,1.9,4.47-.14,4.73-.38,11.91-.72,21.54-.34,9.63-.65,17.09-.92,22.36-.21,2.81-.31,8.47-.31,16.97,0,1.37-.41,2.64-1.23,3.8.07.21.19.55.36,1.03.17.48.26,1.06.26,1.75,0,1.37-.41,2.61-1.23,3.7-.82,1.1-1.95,1.92-3.39,2.47-1.17.48-3.02.98-5.55,1.49-2.54.51-4.11.77-4.73.77-3.22,0-5.59-.46-7.09-1.39-1.51-.93-2.26-2.49-2.26-4.68,0-1.58.55-2.96,1.64-4.16,1.1-1.2,2.6-1.9,4.52-2.11-.41-1.03-.82-7.04-1.23-18.04-.41-11-.62-19.14-.62-24.42v-10.8Z"></path><path d="m781.07,257.93l1.34-.21c.34-17.21.86-28.07,1.54-32.59-.07-1.37.21-3.05.82-5.04.48-1.37,1.29-2.47,2.42-3.29,1.13-.82,2.38-1.23,3.75-1.23,1.78,0,3.25.65,4.42,1.95,1.16,1.3,1.75,2.85,1.75,4.63-1.37,10.56-2.06,23.38-2.06,38.46,0,4.18-.07,8.57-.21,13.16-.14,4.59-.27,7.92-.41,9.97-.27,3.29-1.23,6-2.88,8.12-1.65,2.12-3.8,3.19-6.48,3.19-.89,0-1.82-.41-2.78-1.23-.69-.62-1.27-1.52-1.75-2.72-.48-1.2-.75-2.31-.82-3.34v-.1c-1.37-2.67-2.64-5.96-3.8-9.87-.14-.55-.4-1.25-.77-2.11-.38-.86-.67-1.49-.87-1.9-.82-1.78-1.37-3.15-1.65-4.11l-5.14-12.96-1.34.72c0,1.44.27,5.86.82,13.26.07,1.44.24,3.98.51,7.61.27,3.63.41,6.24.41,7.81,0,2.19-.58,3.94-1.75,5.24-1.17,1.3-2.67,1.95-4.52,1.95-1.51,0-2.81-.45-3.91-1.34-.82.41-1.68.62-2.57.62-1.17,0-2.28-.46-3.34-1.39-1.06-.93-1.59-2.18-1.59-3.75v-1.85c-1.37-2.4-2.23-4.46-2.57-6.17-.34-1.71-.51-4.39-.51-8.02,0-9.67.22-17.21.67-22.62.45-5.41,1.04-10.69,1.8-15.83.55-3.29.82-5.89.82-7.81-.07-.14-.14-.53-.21-1.18-.07-.65-.1-1.29-.1-1.9,0-1.78.62-3.34,1.85-4.68,1.23-1.34,2.71-2,4.42-2,2.12,0,4.01.77,5.66,2.31,1.64,1.54,2.47,3.51,2.47,5.91.27-.07.68-.1,1.23-.1,1.51,0,2.78.6,3.8,1.8,1.03,1.2,1.97,2.95,2.83,5.24.86,2.3,2,5.88,3.44,10.75l1.23,4.01,1.23,4.32c1.23,4.39,2.16,7.16,2.78,8.33Z"></path><path d="m856.86,260.66c.21,1.13.31,2.73.31,4.78v21.7c0,1.17-.38,2.33-1.13,3.5-.34,1.3-1.08,2.4-2.21,3.29-1.13.89-2.42,1.34-3.86,1.34-2.13,0-4.1-.09-5.91-.26-1.82-.17-3.14-.4-3.96-.67-.96.75-2.09,1.13-3.39,1.13-.69,0-1.47-.14-2.36-.41-.89-.27-1.48-.45-1.75-.51-1.99-.48-3.45-.93-4.37-1.34-.93-.41-2-1.1-3.24-2.06-5.14-3.97-8.89-7.2-11.26-9.67s-4.01-5.02-4.94-7.66c-.93-2.64-1.39-6.05-1.39-10.23,0-6.31,1.35-13.35,4.06-21.13,2.71-7.78,6.25-14.38,10.64-19.79,4.39-5.41,8.95-8.12,13.68-8.12,1.92,0,3.56.86,4.93,2.57.75,0,1.37.04,1.85.1l.92.1c1.58.21,2.93.93,4.06,2.16s1.7,2.64,1.7,4.22c0,1.71-.63,3.17-1.9,4.37-1.27,1.2-2.76,1.8-4.47,1.8-2.06,0-3.33.24-3.8.72-2.13,1.51-4.11,4.08-5.96,7.71-1.85,3.63-3.33,7.59-4.42,11.88-1.1,4.28-1.65,8.04-1.65,11.26,0,5.9,1.3,10.4,3.91,13.52,2.6,3.12,6.79,5.54,12.54,7.25l.93-15.01c-3.36,1.58-5.45,2.36-6.27,2.36-1.3,0-2.26-.89-2.88-2.67-1.3-.48-2.37-1.25-3.19-2.31-.82-1.06-1.23-2.28-1.23-3.65,0-2.88,1.4-4.94,4.22-6.17,2.81-1.23,6.31-1.85,10.49-1.85,2.88,0,5.04.27,6.48.82,1.44.55,2.6,1.65,3.5,3.29.68,1.3,1.13,2.52,1.34,3.65Z"></path></g></svg> 